<svg xmlns="http://www.w3.org/2000/svg" viewBox="0 0 512 512">
  <rect width="512" height="512" rx="108" fill="#d71920"/>
  <g transform="translate(93.31,103.91) scale(1.8784)">
    <path fill="#ffffff" d="M173.16,12.51c-.56,1.39-1.1,2.75-1.65,4.11L161,42.52c-.09.22-.17.44-.28.66-.79,1.64-2,1.9-3.31.57s-2.23-2.61-3.36-3.9c-7.66-8.75-17-14.62-28.59-16.63a43.53,43.53,0,0,0-11.23-.28A78,78,0,0,0,98,25.49a63.61,63.61,0,0,0-21.7,11.65C59.78,50.52,49.55,67.84,45.1,88.58a77.55,77.55,0,0,0-1.23,24.55c.67,6.39,2.58,12.4,6.72,17.5a22.4,22.4,0,0,0,14,8.09c4.31.73,8.72.9,13.1,1.2a2.63,2.63,0,0,0,2-1c7.15-11.59,14-23.35,18.3-36.36a99.06,99.06,0,0,0,2.89-11.43,20,20,0,0,0-.08-5.24A3,3,0,0,0,99,83.51C98,83,96.79,82.34,97.1,81s1.54-1.6,2.73-1.72a27.15,27.15,0,0,1,3-.22q21.3,0,42.6,0a10.1,10.1,0,0,1,3.36.71c1.27.45,1.47,1.36.67,2.46a3.07,3.07,0,0,1-1,1,8.16,8.16,0,0,0-4,4.6c-2.75,6.45-5.44,12.93-8.23,19.36-4.2,9.66-8.25,19.38-12.77,28.87a117.49,117.49,0,0,1-8.55,14.39,16.3,16.3,0,0,1-11.79,7.08c-8.18,1.08-16.4,2-24.62,2.69a170.52,170.52,0,0,1-24.45.3c-7.35-.4-14.65-1.2-21.62-3.65-17.23-6.06-27.79-18.1-31.55-36a50.22,50.22,0,0,1-.36-16.23,127.44,127.44,0,0,1,13-43.13A107.38,107.38,0,0,1,40,28.1a105.93,105.93,0,0,1,48-23.25,159.09,159.09,0,0,1,24.72-3.51c6.5-.33,13-.27,19.53-.05A87.54,87.54,0,0,1,158.8,6.12c4.56,1.62,8.92,3.82,13.36,5.77A8.12,8.12,0,0,1,173.16,12.51Z"/>
  </g>
</svg>
